<?xml version="1.0" standalone="no"?>
<!DOCTYPE svg PUBLIC "-//W3C//DTD SVG 20010904//EN"
 "http://www.w3.org/TR/2001/REC-SVG-20010904/DTD/svg10.dtd">
<svg version="1.0" xmlns="http://www.w3.org/2000/svg"
 width="1200.000000pt" height="1200.000000pt" viewBox="0 0 1200.000000 1200.000000"
 preserveAspectRatio="xMidYMid meet">
<metadata>
Created by potrace 1.14, written by Peter Selinger 2001-2017
</metadata>
<g transform="translate(0.000000,1200.000000) scale(0.100000,-0.100000)"
fill="#000000" stroke="none">
<path d="M5860 11113 c-348 -46 -621 -287 -711 -628 -42 -162 -24 -382 46
-538 63 -142 183 -282 317 -368 l78 -50 0 -253 0 -253 -127 -5 c-71 -3 -424
-5 -785 -4 l-656 1 -4 -53 c-2 -30 -1 -56 1 -58 2 -2 879 -4 1948 -4 l1944 0
-3 58 -3 57 -792 0 -793 0 0 260 1 260 61 35 c127 73 253 214 322 361 53 110
68 179 73 324 4 109 2 144 -16 220 -41 172 -144 339 -279 451 -78 65 -237 145
-333 168 -70 17 -228 28 -289 19z m91 -105 c-289 -41 -533 -261 -607 -548 -22
-86 -23 -253 0 -340 24 -95 87 -216 153 -295 68 -81 196 -172 293 -209 87 -33
41 -33 -58 0 -386 128 -590 543 -457 927 36 104 81 173 176 268 71 72 101 94
180 133 110 54 193 75 304 74 l80 0 -64 -10z m120 -324 c75 -22 129 -56 184
-115 232 -248 90 -652 -246 -699 -177 -25 -353 72 -432 237 -30 64 -32 74 -32
178 1 97 4 117 27 165 90 194 301 292 499 234z m-263 -1294 l32 0 0 -185 0
-185 -32 0 c-18 0 -43 -3 -55 -6 l-23 -6 0 197 0 197 23 -6 c12 -3 37 -6 55
-6z"/>
<path d="M3720 9163 c-38 -16 -74 -50 -91 -87 -17 -38 -19 -74 -19 -492 l0
-451 23 -44 c62 -118 227 -117 287 1 19 37 20 61 20 496 0 507 1 499 -67 551
-35 27 -118 41 -153 26z"/>
<path d="M8075 9151 c-16 -10 -41 -31 -55 -45 l-25 -28 0 -493 0 -494 30 -31
c46 -48 81 -63 137 -58 52 5 89 27 122 72 21 27 21 38 21 511 0 475 0 484 -21
512 -52 71 -144 95 -209 54z"/>
<path d="M3472 8990 c-73 -26 -111 -51 -168 -112 -163 -172 -156 -438 15 -601
55 -52 142 -102 191 -109 l25 -3 3 423 c1 232 -1 422 -5 422 -5 -1 -32 -9 -61
-20z"/>
<path d="M8390 8586 l0 -424 38 10 c141 39 259 159 296 303 61 231 -74 461
-311 530 l-23 6 0 -425z"/>
<path d="M4019 8693 c0 -65 -1 -211 -2 -325 l-2 -208 791 0 791 0 6 -157 c25
-603 29 -2673 6 -3213 -31 -759 -64 -1016 -159 -1244 -143 -343 -430 -566
-816 -635 -513 -92 -948 70 -1232 458 -58 78 -150 245 -167 300 l-7 24 67 -8
c82 -8 151 -28 228 -65 31 -15 57 -24 57 -20 0 4 -63 198 -139 431 -77 233
-197 600 -267 814 -69 215 -130 394 -134 398 -13 14 -191 -180 -315 -344 -323
-425 -441 -769 -462 -1349 l-6 -185 64 57 c104 91 322 239 333 227 2 -2 11
-40 20 -84 74 -371 301 -739 609 -988 172 -139 326 -227 1322 -752 501 -264
784 -419 899 -492 147 -94 325 -253 422 -377 l31 -39 30 44 c47 68 238 246
341 319 154 108 276 176 1212 670 477 252 833 448 935 516 383 252 662 651
755 1079 11 55 23 101 25 104 13 12 218 -129 344 -237 l51 -44 0 99 c0 54 -5
152 -11 218 -43 510 -152 809 -427 1177 -117 156 -335 401 -345 387 -2 -2 -56
-166 -120 -364 -65 -198 -186 -570 -271 -827 l-153 -467 38 19 c96 49 319 100
319 73 0 -24 -111 -227 -164 -301 -72 -99 -227 -252 -316 -310 -195 -128 -393
-185 -640 -184 -559 1 -947 244 -1119 702 -95 253 -121 549 -142 1605 -10 529
-7 1633 7 2563 l6 402 799 0 799 0 0 325 0 325 -1945 0 -1945 0 -1 -117z
m1818 -2705 l-3 -2163 -21 -90 c-33 -139 -69 -239 -132 -370 -180 -371 -489
-620 -899 -724 -383 -98 -799 -67 -1116 84 -233 110 -462 322 -584 539 -66
116 -58 120 40 19 235 -241 490 -395 797 -483 297 -86 657 -77 938 21 376 132
671 435 804 826 76 225 83 389 84 1923 0 679 -4 1538 -8 1908 l-8 672 56 0 55
0 -3 -2162z m-2833 -1686 c197 -106 150 -407 -71 -452 -104 -22 -205 24 -260
117 -24 41 -28 59 -28 124 0 67 4 81 30 125 71 114 209 150 329 86z m6127 7
c211 -107 167 -414 -65 -461 -195 -39 -351 175 -258 352 63 122 204 170 323
109z m-691 -1683 c0 -6 -285 -177 -445 -267 -241 -135 -547 -283 -835 -404
-273 -115 -547 -261 -695 -373 -161 -121 -352 -294 -387 -350 -11 -18 -23 -31
-26 -27 -9 9 102 165 173 243 197 215 576 464 970 638 82 37 258 108 390 159
332 128 503 202 690 299 184 97 165 87 165 82z"/>
<path d="M2805 4241 c-89 -55 -116 -140 -74 -228 42 -86 155 -119 241 -71 121
68 110 241 -19 307 -34 17 -114 13 -148 -8z"/>
<path d="M8933 4235 c-83 -50 -106 -160 -50 -244 31 -46 80 -71 142 -71 78 0
143 49 166 128 21 71 -20 160 -92 197 -44 23 -117 19 -166 -10z"/>
</g>
</svg>
